<?xml version="1.0" encoding="utf-8"?>
<!-- Generator: Adobe Illustrator 16.0.0, SVG Export Plug-In . SVG Version: 6.00 Build 0)  -->
<!DOCTYPE svg PUBLIC "-//W3C//DTD SVG 1.1//EN" "http://www.w3.org/Graphics/SVG/1.1/DTD/svg11.dtd">
<svg version="1.1" id="Layer_1" xmlns="http://www.w3.org/2000/svg" xmlns:xlink="http://www.w3.org/1999/xlink" x="0px" y="0px"
	 width="160px" height="200px" viewBox="0 0 160 200" enable-background="new 0 0 160 200" xml:space="preserve">
<g>
	<path fill="#80A830" d="M118.797,29.017c-5.505,9.403-7.81,24.56-7.81,24.56c6.517-3.224,12.938-4.316,18.829-4.192
		c2.626-3.852,13.54-18.721,27.646-23.756C157.462,25.628,134.223,20.092,118.797,29.017z"/>
	<path fill="#80A830" d="M67.679,23.282c0,0-7.697-15.509-28.756-14.988c0,0,14.842,17.731,15.604,26.934
		c6.217,3.389,9.978,6.736,9.978,6.736c3.005-4.411,3.979-11.6,4.066-18.602L67.679,23.282z"/>
	<path fill="#80A830" d="M80.708,1.668c0,0,2.958,7.283,1.09,16.793l-0.162,0.076c5.838,11.395,7.188,23.754,7.188,23.754
		c6.669-8.321,16.101-12.982,23.303-15.489l-0.17-0.496c0,0,7.544-16.046,20.463-19.678c0,0-27.479-1.656-38.562,14.969
		C93.857,21.597,91.76,7.543,80.708,1.668z"/>
	<path fill="#5A943A" d="M54.526,35.229c-6.835-3.788-16.705-7.615-27.814-7.087c0,0,19.809,13.139,21.317,30.487
		c4.127-0.753,8.512-0.872,12.878-0.609c5.492,0.377,11.271,0.893,17.102,1.777c10.283,1.567,20.648,4.264,29.431,9.158
		c4.087,2.299,8.21,5.737,11.507,9.84c2.315-2.581,20.035-21.682,38.384-20.18c0,0-11.894-8.889-27.515-9.229
		c-5.891-0.125-12.312,0.968-18.829,4.192c0,0,2.305-15.157,7.81-24.56c1.151-1.952,2.42-3.665,3.849-4.941
		c0,0-4.484,0.603-10.519,2.727c-7.202,2.507-16.634,7.168-23.303,15.489c0,0-1.35-12.36-7.188-23.754
		c-3.302-6.443-8.029-12.594-14.775-15.971c0,0,1.853,10.24,1.708,20.797c-0.087,7.002-1.061,14.191-4.066,18.602
		C64.504,41.965,60.744,38.617,54.526,35.229L54.526,35.229z"/>
	<path fill="#68A44A" d="M66.861,2.566c15.558,25.059-1.556,55.129-1.556,55.129C60.02,42.026,38.62,32.38,26.826,28.144
		c11.061-0.5,20.892,3.307,27.701,7.085c6.217,3.389,9.978,6.736,9.978,6.736c3.005-4.411,3.979-11.6,4.066-18.602
		C68.714,12.806,66.861,2.566,66.861,2.566z"/>
	<path fill="#FFCF42" d="M55.142,55.849c-9.167,1.094-17.462,4.953-23.061,13.237C15.875,92.998,6.612,143.404,8.66,159.265
		c2.041,15.85,15.603,26.133,43.05,33.618c27.451,7.455,42.712,7.119,56.476-3.358c17.922-16.773,30.375-71.764,24.053-98.596
		c-0.919-3.91-2.918-7.753-5.53-11.208c-3.167-4.268-7.214-7.922-11.277-10.432c-8.747-5.35-19.218-8.59-29.665-10.697
		c-5.922-1.189-11.812-2.008-17.414-2.674C63.897,55.425,59.405,55.313,55.142,55.849L55.142,55.849z"/>
	<path fill="#68A44A" d="M106.074,58.796c4.772-29.274,16.571-34.72,16.571-34.72c-1.429,1.276-2.697,2.989-3.849,4.941
		c-5.505,9.403-7.81,24.56-7.81,24.56c6.517-3.224,12.938-4.316,18.829-4.192c15.621,0.34,27.515,9.229,27.515,9.229
		c-6.194-0.508-12.301,1.354-17.777,4.115C125.841,53.856,106.074,58.796,106.074,58.796z"/>
	<path fill="#96B931" d="M145.111,28.932c0,0-12.597-4.929-26.314,0.085c15.426-8.924,38.665-3.388,38.665-3.388
		c-12.706,4.535-22.8,17.021-26.601,22.275C132.587,42.948,136.441,35.658,145.111,28.932z"/>
	<path fill="#96B931" d="M123.52,11.453c-6.001-0.601-17.635,0.806-31.243,15.737c0,0-0.346-15.601-11.568-25.522
		C91.76,7.543,93.857,21.597,93.857,21.597C104.941,4.972,132.42,6.628,132.42,6.628C129.079,7.566,126.105,9.345,123.52,11.453z"/>
	<path fill="#96B931" d="M38.922,8.294c21.059-0.521,28.756,14.988,28.756,14.988l0.891,0.081c-0.043,3.287-0.293,6.606-0.842,9.667
		C64.16,25.419,55.4,11.117,38.922,8.294z"/>
	<path fill="#FCB533" d="M30.36,175.529c1.762,3.175,1.648,6.813,0.075,9.647c5.262,2.591,11.529,4.9,18.818,6.991
		c-0.087-3.474,1.6-6.807,4.767-8.511l9.93-5.346c4.619-2.491,10.528-0.591,13.205,4.233l6.46,11.65
		c0.661,1.197,1.066,2.471,1.223,3.735c0.867-0.038,1.702-0.119,2.535-0.194l-5.416-9.771c-2.68-4.823-1.101-10.763,3.512-13.244
		l9.927-5.345c4.622-2.487,10.533-0.59,13.205,4.235l5.14,9.265c9.723-14.178,17.074-38.998,19.389-61.181
		c-0.715,0.856-1.577,1.612-2.617,2.172l-9.927,5.351c-4.621,2.483-10.528,0.587-13.206-4.239l-6.462-11.657
		c-2.678-4.818-1.102-10.752,3.521-13.232l9.924-5.352c4.615-2.483,10.527-0.588,13.202,4.24l6.3,11.352
		c0.161-7.259-0.336-13.921-1.626-19.4l-0.056-0.175l-2.116,1.145c-4.62,2.482-10.533,0.591-13.206-4.237l-6.463-11.649
		c-1.733-3.131-1.654-6.711-0.147-9.529c-5.915-2.904-12.378-5.043-18.969-6.65c-0.21,3.141-1.904,6.05-4.797,7.609l-9.929,5.346
		c-4.618,2.484-10.527,0.589-13.203-4.236l-6.457-11.65c-0.21-0.379-0.351-0.773-0.511-1.162c-0.414,0.036-0.834,0.056-1.244,0.108
		l-0.574,0.092l4.235,7.639c2.674,4.827,1.103,10.75-3.517,13.238l-9.931,5.349c-4.615,2.484-10.53,0.592-13.195-4.24l-2.632-4.741
		c-2.73,4.701-5.237,10.12-7.491,15.928l7.62-4.103c4.614-2.493,10.526-0.594,13.206,4.233l6.46,11.652
		c2.672,4.822,1.102,10.749-3.516,13.236l-9.931,5.35c-4.616,2.484-10.525,0.589-13.2-4.238l-5.873-10.587
		c-2.186,7.509-3.986,15.157-5.35,22.366l8.723-4.695c4.616-2.49,10.527-0.588,13.206,4.232l6.46,11.654
		c2.673,4.821,1.101,10.755-3.517,13.236l-9.929,5.345c-4.616,2.492-10.527,0.592-13.2-4.233l-4.322-7.79
		c-0.57,6.027-0.658,11.067-0.213,14.491c0.056,0.456,0.16,0.896,0.239,1.343l1.797-0.962c4.614-2.491,10.527-0.592,13.205,4.233
		L30.36,175.529L30.36,175.529z M41.449,118.294l9.929-5.346c4.614-2.488,10.525-0.59,13.202,4.237l6.466,11.65
		c2.667,4.822,1.093,10.756-3.523,13.244l-9.926,5.344c-4.615,2.485-10.529,0.59-13.206-4.237l-6.458-11.652
		C35.258,126.711,36.833,120.783,41.449,118.294L41.449,118.294z M74.061,79.866l6.461,11.65c2.673,4.821,1.095,10.756-3.513,13.241
		l-9.937,5.346c-4.616,2.491-10.524,0.586-13.201-4.239l-6.455-11.644c-2.681-4.824-1.103-10.758,3.508-13.243l9.93-5.344
		C65.473,73.146,71.386,75.039,74.061,79.866L74.061,79.866z M108.545,95.486l-9.931,5.348c-4.619,2.485-10.53,0.584-13.204-4.24
		l-6.463-11.646c-2.671-4.827-1.101-10.758,3.515-13.244l9.929-5.345c4.62-2.485,10.528-0.592,13.207,4.234l6.462,11.655
		C114.733,87.069,113.16,92.997,108.545,95.486L108.545,95.486z M102.575,119.562c2.676,4.827,1.104,10.754-3.512,13.239
		l-9.933,5.347c-4.612,2.488-10.527,0.591-13.202-4.235l-6.459-11.651c-2.677-4.822-1.104-10.755,3.509-13.24l9.933-5.345
		c4.618-2.491,10.526-0.594,13.204,4.235L102.575,119.562L102.575,119.562z M97.898,162.295l-6.461-11.649
		c-2.68-4.825-1.099-10.755,3.52-13.236l9.923-5.351c4.618-2.487,10.533-0.592,13.206,4.235l6.462,11.655
		c2.672,4.821,1.101,10.755-3.518,13.234l-9.927,5.352C106.483,169.02,100.576,167.124,97.898,162.295L97.898,162.295z
		 M66.452,171.229l-6.462-11.653c-2.679-4.821-1.104-10.751,3.511-13.236l9.931-5.349c4.616-2.484,10.526-0.585,13.202,4.239
		l6.463,11.649c2.676,4.827,1.1,10.76-3.517,13.245l-9.927,5.343C75.035,177.953,69.121,176.055,66.452,171.229L66.452,171.229z
		 M48.113,184.739c-4.613,2.484-10.527,0.589-13.2-4.235l-6.457-11.65c-2.68-4.828-1.105-10.751,3.51-13.239l9.931-5.349
		c4.618-2.485,10.524-0.591,13.201,4.234l6.463,11.651c2.67,4.824,1.1,10.754-3.521,13.242L48.113,184.739L48.113,184.739z"/>
	<path fill="#DBDCDD" d="M46.136,191.266l-0.002-0.002l0,0L46.136,191.266L46.136,191.266z M51.709,192.883
		c-0.038-0.009-0.072-0.021-0.107-0.031C51.638,192.861,51.671,192.874,51.709,192.883L51.709,192.883z M8.696,159.522
		c2.002,14.596,13.858,24.445,37.435,31.737C22.557,183.969,10.698,174.118,8.696,159.522L8.696,159.522z M108.235,189.479
		c-0.003,0.006-0.01,0.009-0.011,0.011C108.226,189.487,108.232,189.484,108.235,189.479L108.235,189.479z M108.279,189.441
		c-0.004,0.003-0.011,0.006-0.012,0.008C108.271,189.447,108.275,189.444,108.279,189.441L108.279,189.441z M108.317,189.405
		c-0.007,0.003-0.008,0.006-0.011,0.009C108.31,189.411,108.311,189.408,108.317,189.405L108.317,189.405z M108.358,189.364
		c-0.002,0.003-0.002,0.003-0.008,0.007C108.354,189.369,108.358,189.365,108.358,189.364L108.358,189.364z M132.632,92.763
		L132.632,92.763L132.632,92.763L132.632,92.763z M132.622,92.717l0.001,0.003L132.622,92.717L132.622,92.717z M132.614,92.671
		c0,0.001,0.001,0.006,0,0.008C132.615,92.677,132.613,92.675,132.614,92.671L132.614,92.671z M132.607,92.625
		c-0.001,0.003-0.001,0.005-0.002,0.006C132.606,92.63,132.606,92.628,132.607,92.625L132.607,92.625z M132.598,92.582
		L132.598,92.582l0.001-0.002L132.598,92.582z M132.567,92.437c0,0.002,0.001,0.008,0.002,0.01
		C132.568,92.441,132.567,92.438,132.567,92.437L132.567,92.437z M132.559,92.39c0.001,0.004,0.003,0.012,0,0.016
		C132.562,92.401,132.56,92.394,132.559,92.39L132.559,92.39z M132.551,92.345c-0.001,0.003,0.001,0.015-0.002,0.018
		C132.551,92.354,132.547,92.348,132.551,92.345L132.551,92.345z M132.537,92.3c-0.001,0.003,0.004,0.013,0.008,0.019
		C132.543,92.31,132.538,92.304,132.537,92.3L132.537,92.3z M132.529,92.257c0.003,0.008,0.004,0.014,0.004,0.021
		C132.533,92.271,132.532,92.265,132.529,92.257L132.529,92.257z M132.519,92.211c0.006,0.01,0.007,0.015,0.006,0.025
		C132.525,92.226,132.524,92.221,132.519,92.211L132.519,92.211z M132.512,92.171c-0.001,0.005,0.006,0.015,0.004,0.021
		C132.518,92.186,132.514,92.177,132.512,92.171L132.512,92.171z M132.504,92.127c0.002,0.007,0.002,0.014,0.003,0.016
		C132.506,92.141,132.506,92.134,132.504,92.127L132.504,92.127z M132.489,92.053c0.002,0.021,0.007,0.04,0.013,0.059
		C132.496,92.093,132.491,92.073,132.489,92.053L132.489,92.053z M132.482,92.015c0.002,0.013,0.003,0.016,0.004,0.029
		C132.486,92.033,132.484,92.027,132.482,92.015L132.482,92.015z M132.472,91.973c0,0.011,0.005,0.021,0.002,0.03
		C132.477,91.994,132.472,91.983,132.472,91.973L132.472,91.973z M132.461,91.932c0.002,0.01,0.005,0.018,0.007,0.028
		C132.466,91.949,132.463,91.941,132.461,91.932L132.461,91.932z M132.452,91.89c0.004,0.012,0.007,0.02,0.007,0.03
		C132.459,91.909,132.456,91.901,132.452,91.89L132.452,91.89z M132.445,91.848c-0.001,0.006,0.001,0.02,0.003,0.028
		C132.448,91.866,132.445,91.855,132.445,91.848L132.445,91.848z M132.437,91.805c-0.001,0.013,0.004,0.02,0.004,0.027
		C132.439,91.825,132.44,91.814,132.437,91.805L132.437,91.805z M132.405,91.655c0.009,0.047,0.021,0.1,0.026,0.142
		C132.425,91.748,132.414,91.702,132.405,91.655L132.405,91.655z M132.394,91.614c0.001,0.012,0.001,0.02,0.004,0.025
		C132.395,91.634,132.395,91.626,132.394,91.614L132.394,91.614z M132.382,91.569c0.006,0.01,0.008,0.022,0.01,0.028
		C132.39,91.593,132.385,91.577,132.382,91.569L132.382,91.569z M132.372,91.531c0.006,0.008,0.008,0.019,0.01,0.027
		C132.38,91.55,132.378,91.539,132.372,91.531L132.372,91.531z M132.366,91.49c-0.001,0.01,0.003,0.017,0.006,0.031
		C132.369,91.507,132.365,91.5,132.366,91.49L132.366,91.49z M132.355,91.448c0.004,0.009,0.005,0.019,0.007,0.028
		C132.36,91.467,132.359,91.457,132.355,91.448L132.355,91.448z M132.349,91.406c0.002,0.008,0.003,0.018,0.007,0.032
		C132.352,91.424,132.351,91.414,132.349,91.406L132.349,91.406z M132.335,91.363c0.005,0.012,0.009,0.022,0.009,0.032
		C132.343,91.385,132.339,91.378,132.335,91.363L132.335,91.363z M132.316,91.259c0.006,0.032,0.014,0.064,0.021,0.104
		C132.33,91.326,132.32,91.289,132.316,91.259L132.316,91.259z M132.304,91.217c0.003,0.012,0.004,0.017,0.007,0.025
		C132.308,91.233,132.307,91.226,132.304,91.217L132.304,91.217z M132.294,91.179c0.004,0.009,0.005,0.016,0.01,0.022
		C132.299,91.194,132.298,91.188,132.294,91.179L132.294,91.179z M132.284,91.136c0.001,0.01,0.004,0.015,0.009,0.021
		C132.288,91.15,132.285,91.146,132.284,91.136L132.284,91.136z M132.276,91.093c-0.002,0.008,0.004,0.017,0.004,0.023
		C132.28,91.109,132.274,91.101,132.276,91.093L132.276,91.093z M132.263,91.052c0.005,0.011,0.004,0.015,0.007,0.021
		C132.267,91.066,132.264,91.058,132.263,91.052L132.263,91.052z M132.257,91.011c0.003,0.009,0.002,0.015,0.003,0.024
		C132.259,91.025,132.26,91.02,132.257,91.011L132.257,91.011z M132.245,90.971c0.003,0.004,0.005,0.011,0.008,0.019
		C132.252,90.983,132.246,90.975,132.245,90.971L132.245,90.971z"/>
</g>
</svg>
